<?xml version="1.0" encoding="iso-8859-1"?>
<!-- Uploaded to: SVG Repo, www.svgrepo.com, Generator: SVG Repo Mixer Tools -->
<svg fill="#000000" height="800px" width="800px" version="1.1" id="Capa_1" xmlns="http://www.w3.org/2000/svg" xmlns:xlink="http://www.w3.org/1999/xlink" 
	 viewBox="0 0 296.371 296.371" xml:space="preserve">
<g>
	<path d="M216.925,250.024l5.006-24.39l-18.387-16.79l24.745-2.778l10.288-22.672l10.283,22.672l5.251,0.59
		c0.976-5.818,1.325-11.793,1.325-17.888c0-47.44-30.583-87.694-73.583-101.919V65.185h-10V49.231
		c36-2.854,68.833-11.909,94.914-26.771c11.721-6.68,21.743-14.275,29.605-22.275h-24.149c-4.031,3-8.434,5.713-13.21,8.436
		c-24.955,14.219-56.998,22.811-91.727,25.137c-4.388-5.761-11.315-9.53-19.1-9.53c-7.782,0-14.709,3.705-19.097,9.465
		C94.359,31.352,62.315,22.79,37.359,8.569c-4.747-2.705-9.123-5.384-13.135-8.384H0c7.862,8,17.551,15.596,29.272,22.275
		c26.08,14.861,59.581,23.916,94.581,26.771v15.954h-9v21.34c-34,11.071-60.935,38.943-70.471,73.93
		c3.434,0.9,6.054,4.015,6.054,7.73c0,4.418-3.54,8-7.958,8c-0.341,0-0.654-0.028-0.984-0.07c-0.486,4.151-0.735,8.372-0.735,12.653
		c0,5.205,0.383,10.321,1.099,15.328l3.099-0.348l6.765-14.904l6.761,14.904l16.27,1.826l-12.087,11.039l3.291,16.034l-14.234-8.085
		l-4.004,2.274c15.367,40.531,54.549,69.348,100.468,69.348c40.764,0,76.226-22.709,94.424-56.167l-4.033-2.291L216.925,250.024z
		 M236.519,151.186c4.418,0,8,3.582,8,8s-3.582,8-8,8s-8-3.582-8-8S232.101,151.186,236.519,151.186z M139.853,50.08
		c3,0.069,5.323,0.106,8,0.106c2.677,0,6-0.037,8-0.106v15.105h-16V50.08z M69.519,149.186c0-4.418,3.582-8,8-8s8,3.582,8,8
		s-3.582,8-8,8S69.519,153.604,69.519,149.186z M107.519,253.186c-4.418,0-8-3.582-8-8s3.582-8,8-8s8,3.582,8,8
		S111.937,253.186,107.519,253.186z M139.888,224.876l-25.934-14.73l-25.935,14.73l5.996-29.214l-22.022-20.11l29.64-3.329
		l12.321-27.155l12.316,27.155l29.643,3.329l-22.022,20.11L139.888,224.876z M162.519,215.186c-4.418,0-8-3.582-8-8s3.582-8,8-8
		s8,3.582,8,8S166.937,215.186,162.519,215.186z M164.771,158.242l17.146-1.924l7.128-15.711l7.126,15.711l17.148,1.924
		l-12.74,11.635l3.469,16.9l-15.003-8.521l-15.004,8.521l3.47-16.9L164.771,158.242z M191.519,235.186c-4.418,0-8-3.582-8-8
		s3.582-8,8-8s8,3.582,8,8S195.937,235.186,191.519,235.186z"/>
</g>
</svg>